<?xml version="1.0" encoding="UTF-8" standalone="no"?>
<!DOCTYPE svg PUBLIC "-//W3C//DTD SVG 1.1//EN" "http://www.w3.org/Graphics/SVG/1.1/DTD/svg11.dtd">
<svg version="1.1" xmlns="http://www.w3.org/2000/svg" xmlns:xlink="http://www.w3.org/1999/xlink" preserveAspectRatio="xMidYMid meet" viewBox="0 0 20 20" width="20" height="20"><defs><path d="M6.04 2.71C5.16 3.82 4.85 5.29 4.85 6.95C4.85 7.08 4.85 7.75 4.85 8.96C3.37 8.96 2.55 8.96 2.38 8.96C2.15 8.96 1.97 9.14 1.97 9.38C1.97 10.3 1.97 17.66 1.97 18.58C1.97 18.81 2.15 19 2.38 19C3.91 19 16.09 19 17.62 19C17.85 19 18.03 18.81 18.03 18.58C18.03 17.66 18.03 10.3 18.03 9.38C18.03 9.14 17.85 8.96 17.62 8.96C17.45 8.96 16.63 8.96 15.15 8.96C15.15 7.75 15.15 7.08 15.15 6.95C15.15 5.29 14.84 3.82 13.96 2.71C13.09 1.59 11.66 1 10 1C8.34 1 6.91 1.59 6.04 2.71ZM12.19 4.1C12.61 4.64 12.89 5.58 12.89 6.95C12.89 7.08 12.89 7.75 12.89 8.96L7.11 8.96C7.11 7.75 7.11 7.08 7.11 6.95C7.11 5.58 7.39 4.64 7.81 4.1C8.24 3.56 8.82 3.26 10 3.26C11.18 3.26 11.76 3.57 12.19 4.1ZM9.45 9.82L10.64 9.82C10.64 10.41 10.64 10.73 10.64 10.8C10.96 10.83 11.24 10.88 11.48 10.94C11.71 11 11.9 11.06 12.04 11.13C12.01 11.24 11.78 12.14 11.75 12.25C11.54 12.17 11.3 12.09 11.02 12.03C10.76 11.97 10.47 11.94 10.17 11.94C9.87 11.94 9.65 11.98 9.52 12.09C9.39 12.19 9.32 12.32 9.32 12.48C9.32 12.58 9.34 12.67 9.38 12.74C9.42 12.81 9.49 12.88 9.58 12.93C9.66 12.99 9.77 13.04 9.9 13.1C10.03 13.15 10.18 13.21 10.37 13.27C10.64 13.37 10.9 13.48 11.13 13.6C11.37 13.72 11.57 13.86 11.74 14.01C11.91 14.16 12.05 14.34 12.14 14.55C12.24 14.75 12.29 15 12.29 15.27C12.29 15.46 12.27 15.65 12.21 15.84C12.15 16.02 12.06 16.19 11.93 16.34C11.8 16.5 11.62 16.64 11.41 16.75C11.2 16.86 10.95 16.94 10.64 16.99C10.64 17.07 10.64 17.45 10.64 18.14L9.45 18.14C9.45 17.47 9.45 17.09 9.45 17.02C9 16.98 8.62 16.91 8.34 16.81C8.05 16.71 7.84 16.62 7.71 16.55C7.75 16.44 8.07 15.58 8.11 15.47C8.33 15.58 8.59 15.67 8.89 15.76C9.2 15.85 9.52 15.89 9.86 15.89C10.24 15.89 10.5 15.85 10.64 15.74C10.78 15.64 10.86 15.49 10.86 15.3C10.86 15.18 10.83 15.08 10.77 15C10.71 14.91 10.63 14.83 10.53 14.76C10.42 14.7 10.28 14.63 10.12 14.57C9.96 14.5 9.77 14.43 9.56 14.35C9.35 14.28 9.15 14.19 8.95 14.11C8.75 14.01 8.57 13.9 8.41 13.77C8.25 13.64 8.13 13.48 8.03 13.29C7.93 13.1 7.88 12.86 7.88 12.59C7.88 12.39 7.91 12.19 7.97 12C8.03 11.81 8.13 11.63 8.25 11.47C8.38 11.32 8.54 11.19 8.74 11.08C8.94 10.97 9.18 10.89 9.45 10.84C9.45 10.7 9.45 10.36 9.45 9.82Z" id="d3JjRkcPM3"></path></defs><g><g><g><use xlink:href="#d3JjRkcPM3" opacity="1" fill="#000000" fill-opacity="1"></use><g><use xlink:href="#d3JjRkcPM3" opacity="1" fill-opacity="0" stroke="#000000" stroke-width="1" stroke-opacity="0"></use></g></g></g></g></svg>