<?xml version="1.0" encoding="UTF-8" standalone="no"?>
<svg xmlns="http://www.w3.org/2000/svg" version="1.1" width="20" height="20" viewBox="0 0 5.2916665 5.2916665">
  <g transform="translate(-26.75,-198.89161)">
    <path style="fill:#ffffff;stroke:none;fill-opacity:1" d="m 29.395833,199.15619 c -0.438816,0 -0.816733,0.15631 -1.048508,0.4516 -0.231777,0.29522 -0.313118,0.68348 -0.313118,1.12263 v 0.53135 h -0.653428 c -0.0612,0 -0.110445,0.0492 -0.110445,0.11047 v 2.43599 c 0,0.0612 0.04926,0.11046 0.110445,0.11046 h 4.030108 c 0.0612,0 0.110445,-0.0492 0.110445,-0.11046 v -2.43599 c 0,-0.0612 -0.04926,-0.11047 -0.110445,-0.11047 h -0.653429 v -0.53135 c 0,-0.43915 -0.08134,-0.82741 -0.313117,-1.12263 -0.231776,-0.29524 -0.609695,-0.4516 -1.048508,-0.4516 z m 0,0.5978 c 0.313119,0 0.46667,0.0809 0.578287,0.223 0.111613,0.14215 0.18554,0.3916 0.18554,0.75343 v 0.53135 h -1.527654 v -0.53135 c 0,-0.36183 0.07393,-0.61124 0.18554,-0.75343 0.111614,-0.14215 0.265167,-0.223 0.578287,-0.223 z m -0.144239,1.73572 h 0.313351 v 0.25865 c 0.08621,0.009 0.159995,0.0207 0.221347,0.0374 0.06301,0.016 0.112746,0.0332 0.149214,0.0497 l -0.0771,0.29846 c -0.05472,-0.0232 -0.118552,-0.0432 -0.191507,-0.0596 -0.07128,-0.016 -0.146752,-0.0248 -0.226329,-0.0248 -0.07959,0 -0.136768,0.0124 -0.171589,0.0398 -0.03482,0.0266 -0.05222,0.0612 -0.05222,0.10444 0,0.0266 0.005,0.0497 0.01487,0.0696 0.01168,0.0182 0.02901,0.0349 0.05222,0.0497 0.02321,0.0142 0.05141,0.0299 0.08457,0.0447 0.03482,0.0124 0.07625,0.0282 0.124341,0.0447 0.07295,0.0266 0.140132,0.0556 0.201471,0.0871 0.06301,0.0316 0.116871,0.068 0.16164,0.1094 0.04644,0.0399 0.08209,0.0871 0.106958,0.1418 0.02653,0.0547 0.03978,0.11861 0.03978,0.1915 0,0.0497 -0.0074,0.0995 -0.02236,0.14924 -0.01487,0.0481 -0.0398,0.0928 -0.07462,0.13436 -0.03482,0.0414 -0.08042,0.0772 -0.136786,0.10693 -0.05472,0.03 -0.122695,0.0513 -0.203936,0.0646 v 0.3034 h -0.313352 v -0.29593 c -0.12103,-0.0106 -0.219697,-0.0282 -0.295968,-0.0547 -0.07462,-0.0282 -0.130147,-0.0513 -0.166632,-0.0696 l 0.106923,-0.28602 c 0.05803,0.0282 0.126837,0.0538 0.206427,0.077 0.08124,0.0232 0.166632,0.0349 0.256165,0.0349 0.101135,0 0.16996,-0.0124 0.206428,-0.0398 0.03813,-0.0282 0.05721,-0.0671 0.05721,-0.11684 0,-0.0315 -0.0074,-0.058 -0.02239,-0.0797 -0.01487,-0.0232 -0.03647,-0.0439 -0.06466,-0.0621 -0.02818,-0.0183 -0.06383,-0.0356 -0.106939,-0.0522 -0.0431,-0.0183 -0.09285,-0.0374 -0.149214,-0.0572 -0.05472,-0.0198 -0.108603,-0.0414 -0.161675,-0.0646 -0.05141,-0.025 -0.09864,-0.0547 -0.141743,-0.0896 -0.04144,-0.0349 -0.07545,-0.077 -0.101966,-0.12675 -0.02488,-0.0513 -0.03732,-0.11276 -0.03732,-0.18406 0,-0.0547 0.0074,-0.10691 0.02239,-0.15666 0.01664,-0.0513 0.04144,-0.0979 0.0746,-0.13932 0.03316,-0.0414 0.07628,-0.0763 0.129334,-0.10444 0.05306,-0.03 0.116057,-0.0513 0.189017,-0.0646 z" />
  </g>
</svg>
